<svg width="100%" height="100%" viewBox="0 0 512 512" version="1.1" xmlns="http://www.w3.org/2000/svg"
  xmlns:xlink="http://www.w3.org/1999/xlink" xml:space="preserve" xmlns:serif="http://www.serif.com/"
  style="fill-rule:evenodd;clip-rule:evenodd;stroke-linejoin:round;stroke-miterlimit:2;">
  <path d="M290.503,42L230.503,42L20.385,460L80.385,460L290.503,42Z" />
  <path d="M216.348,328.511L180,328.511L114.284,459.244L150.631,459.244L216.348,328.511Z" />
  <path d="M180,327.744L217.606,327.744L273.418,459.228L235.812,459.228L180,327.744Z" />
  <path d="M246,328.244L280,328.244L335.606,459.244L301.606,459.244L246,328.244Z" />
  <path d="M354.446,329.232L388.446,329.232L444.052,459.228L410.052,459.228L354.446,329.232Z" />
  <path d="M246,328.277L259.709,360L344,359.454L330.291,327.731L246,328.277Z" />
  <path d="M353.343,327.512L367.154,359.228L451.257,358.687L437.446,326.971L353.343,327.512Z" />
  <path d="M287.854,426.043L302.418,459.744L386.709,459.198L372.146,425.497L287.854,426.043Z" />
  <path d="M396.3,425.786L410.863,459.228L495.154,458.686L480.591,425.244L396.3,425.786Z" />
  <path d="M380.514,378.275L393.582,408.283L457.12,407.874L444.052,377.866L380.514,378.275Z" />
  <path
    d="M265.537,300.617L200.993,300.617C199.361,300.617 197.845,299.77 196.989,298.38C196.133,296.991 196.059,295.256 196.793,293.798L321.97,45.297C322.988,43.275 325.058,42 327.322,42L392.303,42C393.95,42 395.48,42.854 396.344,44.255C397.209,45.657 397.286,47.407 396.547,48.879L272.287,296.452C271.006,299.005 268.394,300.617 265.537,300.617ZM204.903,293.506L265.537,293.506C265.704,293.506 265.857,293.411 265.932,293.262L388.474,49.111L328.011,49.111L204.903,293.506Z" />
</svg>