{"accessors":[{"bufferView":0,"byteOffset":0,"componentType":5126,"count":4,"max":[0.031306524758,0.043113049517,0.008999999872],"min":[0.018506524758000004,0.017513049516999999,-1.2800000000000003e-10],"type":"VEC3"},{"bufferView":0,"byteOffset":48,"componentType":5126,"count":4,"max":[0.025567376208,0.0165,0.008999999872],"min":[0.019132623792,0.0165,-1.2800000000000003e-10],"type":"VEC3"},{"bufferView":0,"byteOffset":96,"componentType":5126,"count":4,"max":[0.038993475242,0.042486950483000007,0.008999999872],"min":[0.026193475242,0.016886950483,-1.2800000000000003e-10],"type":"VEC3"},{"bufferView":0,"byteOffset":144,"componentType":5126,"count":4,"max":[0.0254,0.01735,0.008999999872],"min":[0.0192,0.01735,-1.2800000000000003e-10],"type":"VEC3"},{"bufferView":0,"byteOffset":192,"componentType":5126,"count":4,"max":[0.03195,0.0426,0.008999999872],"min":[0.0192,0.01735,-1.2800000000000003e-10],"type":"VEC3"},{"bufferView":0,"byteOffset":240,"componentType":5126,"count":4,"max":[0.038149999999999999,0.0426,0.008999999872],"min":[0.03195,0.0426,-1.2800000000000003e-10],"type":"VEC3"},{"bufferView":0,"byteOffset":288,"componentType":5126,"count":4,"max":[0.038149999999999999,0.0426,0.008999999872],"min":[0.0254,0.01735,-1.2800000000000003e-10],"type":"VEC3"},{"bufferView":0,"byteOffset":336,"componentType":5126,"count":4,"max":[0.038367376208,0.043500000000000007,0.008999999872],"min":[0.031932623792,0.043500000000000007,-1.2800000000000003e-10],"type":"VEC3"},{"bufferView":0,"byteOffset":384,"componentType":5126,"count":36,"max":[0.039067329526079368,0.043500000000000007,-1.2800000000000003e-10],"min":[0.01843267047392064,0.0165,-1.2800000000000003e-10],"type":"VEC3"},{"bufferView":0,"byteOffset":816,"componentType":5126,"count":20,"max":[0.019132623792,0.017513049516999999,0.008999999872],"min":[0.01843267047392064,0.0165,-1.2800000000000003e-10],"type":"VEC3"},{"bufferView":0,"byteOffset":1056,"componentType":5126,"count":12,"max":[0.026193475242,0.016886950483,0.008999999872],"min":[0.025567376208,0.0165,-1.2800000000000003e-10],"type":"VEC3"},{"bufferView":0,"byteOffset":1200,"componentType":5126,"count":20,"max":[0.039067329526079368,0.043500000000000007,0.008999999872],"min":[0.038367376208,0.042486950483000007,-1.2800000000000003e-10],"type":"VEC3"},{"bufferView":0,"byteOffset":1440,"componentType":5126,"count":12,"max":[0.031932623792,0.043500000000000007,0.008999999872],"min":[0.031306524758,0.043113049517,-1.2800000000000003e-10],"type":"VEC3"},{"bufferView":0,"byteOffset":1584,"componentType":5126,"count":36,"max":[0.039067329526079368,0.043500000000000007,0.008999999872],"min":[0.01843267047392064,0.0165,0.008999999872],"type":"VEC3"},{"bufferView":0,"byteOffset":2016,"componentType":5126,"count":4,"max":[0.038031540859000009,0.0,0.008999999872],"min":[0.029231540859,0.0,-1.2800000000000003e-10],"type":"VEC3"},{"bufferView":0,"byteOffset":2064,"componentType":5126,"count":4,"max":[0.038031540859000009,0.00365,0.008999999872],"min":[0.036470259104,0.0,-1.2800000000000003e-10],"type":"VEC3"},{"bufferView":0,"byteOffset":2112,"componentType":5126,"count":4,"max":[0.036470259104,0.00365,0.008999999872],"min":[0.03125,0.00365,-1.2800000000000003e-10],"type":"VEC3"},{"bufferView":0,"byteOffset":2160,"componentType":5126,"count":4,"max":[0.03125,0.010400000000000002,0.008999999872],"min":[0.028399999999999999,0.00365,-1.2800000000000003e-10],"type":"VEC3"},{"bufferView":0,"byteOffset":2208,"componentType":5126,"count":4,"max":[0.033621969697,0.010400000000000002,0.008999999872],"min":[0.028399999999999999,0.010400000000000002,-1.2800000000000003e-10],"type":"VEC3"},{"bufferView":0,"byteOffset":2256,"componentType":5126,"count":4,"max":[0.033621969697,0.01375,0.008999999872],"min":[0.03215,0.010400000000000002,-1.2800000000000003e-10],"type":"VEC3"},{"bufferView":0,"byteOffset":2304,"componentType":5126,"count":4,"max":[0.03215,0.01375,0.008999999872],"min":[0.023350000000000004,0.01375,-1.2800000000000003e-10],"type":"VEC3"},{"bufferView":0,"byteOffset":2352,"componentType":5126,"count":4,"max":[0.029231540859,0.01375,0.008999999872],"min":[0.023350000000000004,0.0,-1.2800000000000003e-10],"type":"VEC3"},{"bufferView":0,"byteOffset":2400,"componentType":5126,"count":8,"max":[0.038031540859000009,0.01375,-1.2800000000000003e-10],"min":[0.023350000000000004,0.0,-1.2800000000000003e-10],"type":"VEC3"},{"bufferView":0,"byteOffset":2496,"componentType":5126,"count":8,"max":[0.038031540859000009,0.01375,0.008999999872],"min":[0.023350000000000004,0.0,0.008999999872],"type":"VEC3"},{"bufferView":0,"byteOffset":2592,"componentType":5126,"count":4,"max":[0.028,0.0433,0.008999999872],"min":[0.006200000000000001,0.0,-1.2800000000000003e-10],"type":"VEC3"},{"bufferView":0,"byteOffset":2640,"componentType":5126,"count":4,"max":[0.028,0.0433,0.008999999872],"min":[0.0218,0.0433,-1.2800000000000003e-10],"type":"VEC3"},{"bufferView":0,"byteOffset":2688,"componentType":5126,"count":4,"max":[0.0218,0.0433,0.008999999872],"min":[0.0,0.0,-1.2800000000000003e-10],"type":"VEC3"},{"bufferView":0,"byteOffset":2736,"componentType":5126,"count":4,"max":[0.006200000000000001,0.0,0.008999999872],"min":[0.0,0.0,-1.2800000000000003e-10],"type":"VEC3"},{"bufferView":0,"byteOffset":2784,"componentType":5126,"count":4,"max":[0.028,0.0433,-1.2800000000000003e-10],"min":[0.0,0.0,-1.2800000000000003e-10],"type":"VEC3"},{"bufferView":0,"byteOffset":2832,"componentType":5126,"count":4,"max":[0.028,0.0433,0.008999999872],"min":[0.0,0.0,0.008999999872],"type":"VEC3"},{"bufferView":0,"byteOffset":2880,"componentType":5126,"count":4,"max":[0.022382978723,0.009550000000000002,0.008999999872],"min":[0.018330674618,0.0,-1.2800000000000003e-10],"type":"VEC3"},{"bufferView":0,"byteOffset":2928,"componentType":5126,"count":4,"max":[0.0263,0.0,0.008999999872],"min":[0.022382978723,0.0,-1.2800000000000003e-10],"type":"VEC3"},{"bufferView":0,"byteOffset":2976,"componentType":5126,"count":4,"max":[0.0263,0.01375,0.008999999872],"min":[0.020534904674,0.0,-1.2800000000000003e-10],"type":"VEC3"},{"bufferView":0,"byteOffset":3024,"componentType":5126,"count":4,"max":[0.020534904674,0.01375,0.008999999872],"min":[0.016649999999999999,0.01375,-1.2800000000000003e-10],"type":"VEC3"},{"bufferView":0,"byteOffset":3072,"componentType":5126,"count":4,"max":[0.016649999999999999,0.01375,0.008999999872],"min":[0.0096,0.0,-1.2800000000000003e-10],"type":"VEC3"},{"bufferView":0,"byteOffset":3120,"componentType":5126,"count":4,"max":[0.0135,0.0,0.008999999872],"min":[0.0096,0.0,-1.2800000000000003e-10],"type":"VEC3"},{"bufferView":0,"byteOffset":3168,"componentType":5126,"count":4,"max":[0.018330674618,0.009550000000000002,0.008999999872],"min":[0.0135,0.0,-1.2800000000000003e-10],"type":"VEC3"},{"bufferView":0,"byteOffset":3216,"componentType":5126,"count":7,"max":[0.0263,0.01375,-1.2800000000000003e-10],"min":[0.0096,0.0,-1.2800000000000003e-10],"type":"VEC3"},{"bufferView":0,"byteOffset":3300,"componentType":5126,"count":7,"max":[0.0263,0.01375,0.008999999872],"min":[0.0096,0.0,0.008999999872],"type":"VEC3"},{"bufferView":0,"byteOffset":3384,"componentType":5126,"count":4,"max":[0.049356521739,0.0,0.008999999872],"min":[0.0404,0.0,-1.2800000000000003e-10],"type":"VEC3"},{"bufferView":0,"byteOffset":3432,"componentType":5126,"count":4,"max":[0.049356521739,0.00368242478,0.008999999872],"min":[0.047755467487,0.0,-1.2800000000000003e-10],"type":"VEC3"},{"bufferView":0,"byteOffset":3480,"componentType":5126,"count":4,"max":[0.047755467487,0.00368242478,0.008999999872],"min":[0.042451439159,0.00368242478,-1.2800000000000003e-10],"type":"VEC3"},{"bufferView":0,"byteOffset":3528,"componentType":5126,"count":4,"max":[0.042451439159,0.0054,0.008999999872],"min":[0.0417,0.00368242478,-1.2800000000000003e-10],"type":"VEC3"},{"bufferView":0,"byteOffset":3576,"componentType":5126,"count":4,"max":[0.0453,0.0054,0.008999999872],"min":[0.0417,0.0054,-1.2800000000000003e-10],"type":"VEC3"},{"bufferView":0,"byteOffset":3624,"componentType":5126,"count":4,"max":[0.0453,0.0086,0.008999999872],"min":[0.0439,0.0054,-1.2800000000000003e-10],"type":"VEC3"},{"bufferView":0,"byteOffset":3672,"componentType":5126,"count":4,"max":[0.0439,0.0086,0.008999999872],"min":[0.040299999999999999,0.0086,-1.2800000000000003e-10],"type":"VEC3"},{"bufferView":0,"byteOffset":3720,"componentType":5126,"count":4,"max":[0.040299999999999999,0.010481598721,0.008999999872],"min":[0.039476800559,0.0086,-1.2800000000000003e-10],"type":"VEC3"},{"bufferView":0,"byteOffset":3768,"componentType":5126,"count":4,"max":[0.044699631631000009,0.010481598721,0.008999999872],"min":[0.039476800559,0.010481598721,-1.2800000000000003e-10],"type":"VEC3"},{"bufferView":0,"byteOffset":3816,"componentType":5126,"count":4,"max":[0.044699631631000009,0.013889231886,0.008999999872],"min":[0.043208792121999999,0.010481598721,-1.2800000000000003e-10],"type":"VEC3"},{"bufferView":0,"byteOffset":3864,"componentType":5126,"count":4,"max":[0.043208792121999999,0.013889231886,0.008999999872],"min":[0.0344,0.013889231886,-1.2800000000000003e-10],"type":"VEC3"},{"bufferView":0,"byteOffset":3912,"componentType":5126,"count":4,"max":[0.0404,0.013889231886,0.008999999872],"min":[0.0344,0.0,-1.2800000000000003e-10],"type":"VEC3"},{"bufferView":0,"byteOffset":3960,"componentType":5126,"count":12,"max":[0.049356521739,0.013889231886,-1.2800000000000003e-10],"min":[0.0344,0.0,-1.2800000000000003e-10],"type":"VEC3"},{"bufferView":0,"byteOffset":4104,"componentType":5126,"count":12,"max":[0.049356521739,0.013889231886,0.008999999872],"min":[0.0344,0.0,0.008999999872],"type":"VEC3"},{"bufferView":1,"byteOffset":0,"componentType":5126,"count":4,"type":"VEC3"},{"bufferView":1,"byteOffset":48,"componentType":5126,"count":4,"type":"VEC3"},{"bufferView":1,"byteOffset":96,"componentType":5126,"count":4,"type":"VEC3"},{"bufferView":1,"byteOffset":144,"componentType":5126,"count":4,"type":"VEC3"},{"bufferView":1,"byteOffset":192,"componentType":5126,"count":4,"type":"VEC3"},{"bufferView":1,"byteOffset":240,"componentType":5126,"count":4,"type":"VEC3"},{"bufferView":1,"byteOffset":288,"componentType":5126,"count":4,"type":"VEC3"},{"bufferView":1,"byteOffset":336,"componentType":5126,"count":4,"type":"VEC3"},{"bufferView":1,"byteOffset":384,"componentType":5126,"count":36,"type":"VEC3"},{"bufferView":1,"byteOffset":816,"componentType":5126,"count":20,"type":"VEC3"},{"bufferView":1,"byteOffset":1056,"componentType":5126,"count":12,"type":"VEC3"},{"bufferView":1,"byteOffset":1200,"componentType":5126,"count":20,"type":"VEC3"},{"bufferView":1,"byteOffset":1440,"componentType":5126,"count":12,"type":"VEC3"},{"bufferView":1,"byteOffset":1584,"componentType":5126,"count":36,"type":"VEC3"},{"bufferView":1,"byteOffset":2016,"componentType":5126,"count":4,"type":"VEC3"},{"bufferView":1,"byteOffset":2064,"componentType":5126,"count":4,"type":"VEC3"},{"bufferView":1,"byteOffset":2112,"componentType":5126,"count":4,"type":"VEC3"},{"bufferView":1,"byteOffset":2160,"componentType":5126,"count":4,"type":"VEC3"},{"bufferView":1,"byteOffset":2208,"componentType":5126,"count":4,"type":"VEC3"},{"bufferView":1,"byteOffset":2256,"componentType":5126,"count":4,"type":"VEC3"},{"bufferView":1,"byteOffset":2304,"componentType":5126,"count":4,"type":"VEC3"},{"bufferView":1,"byteOffset":2352,"componentType":5126,"count":4,"type":"VEC3"},{"bufferView":1,"byteOffset":2400,"componentType":5126,"count":8,"type":"VEC3"},{"bufferView":1,"byteOffset":2496,"componentType":5126,"count":8,"type":"VEC3"},{"bufferView":1,"byteOffset":2592,"componentType":5126,"count":4,"type":"VEC3"},{"bufferView":1,"byteOffset":2640,"componentType":5126,"count":4,"type":"VEC3"},{"bufferView":1,"byteOffset":2688,"componentType":5126,"count":4,"type":"VEC3"},{"bufferView":1,"byteOffset":2736,"componentType":5126,"count":4,"type":"VEC3"},{"bufferView":1,"byteOffset":2784,"componentType":5126,"count":4,"type":"VEC3"},{"bufferView":1,"byteOffset":2832,"componentType":5126,"count":4,"type":"VEC3"},{"bufferView":1,"byteOffset":2880,"componentType":5126,"count":4,"type":"VEC3"},{"bufferView":1,"byteOffset":2928,"componentType":5126,"count":4,"type":"VEC3"},{"bufferView":1,"byteOffset":2976,"componentType":5126,"count":4,"type":"VEC3"},{"bufferView":1,"byteOffset":3024,"componentType":5126,"count":4,"type":"VEC3"},{"bufferView":1,"byteOffset":3072,"componentType":5126,"count":4,"type":"VEC3"},{"bufferView":1,"byteOffset":3120,"componentType":5126,"count":4,"type":"VEC3"},{"bufferView":1,"byteOffset":3168,"componentType":5126,"count":4,"type":"VEC3"},{"bufferView":1,"byteOffset":3216,"componentType":5126,"count":7,"type":"VEC3"},{"bufferView":1,"byteOffset":3300,"componentType":5126,"count":7,"type":"VEC3"},{"bufferView":1,"byteOffset":3384,"componentType":5126,"count":4,"type":"VEC3"},{"bufferView":1,"byteOffset":3432,"componentType":5126,"count":4,"type":"VEC3"},{"bufferView":1,"byteOffset":3480,"componentType":5126,"count":4,"type":"VEC3"},{"bufferView":1,"byteOffset":3528,"componentType":5126,"count":4,"type":"VEC3"},{"bufferView":1,"byteOffset":3576,"componentType":5126,"count":4,"type":"VEC3"},{"bufferView":1,"byteOffset":3624,"componentType":5126,"count":4,"type":"VEC3"},{"bufferView":1,"byteOffset":3672,"componentType":5126,"count":4,"type":"VEC3"},{"bufferView":1,"byteOffset":3720,"componentType":5126,"count":4,"type":"VEC3"},{"bufferView":1,"byteOffset":3768,"componentType":5126,"count":4,"type":"VEC3"},{"bufferView":1,"byteOffset":3816,"componentType":5126,"count":4,"type":"VEC3"},{"bufferView":1,"byteOffset":3864,"componentType":5126,"count":4,"type":"VEC3"},{"bufferView":1,"byteOffset":3912,"componentType":5126,"count":4,"type":"VEC3"},{"bufferView":1,"byteOffset":3960,"componentType":5126,"count":12,"type":"VEC3"},{"bufferView":1,"byteOffset":4104,"componentType":5126,"count":12,"type":"VEC3"},{"bufferView":2,"byteOffset":0,"componentType":5123,"count":6,"type":"SCALAR"},{"bufferView":2,"byteOffset":12,"componentType":5123,"count":6,"type":"SCALAR"},{"bufferView":2,"byteOffset":24,"componentType":5123,"count":6,"type":"SCALAR"},{"bufferView":2,"byteOffset":36,"componentType":5123,"count":6,"type":"SCALAR"},{"bufferView":2,"byteOffset":48,"componentType":5123,"count":6,"type":"SCALAR"},{"bufferView":2,"byteOffset":60,"componentType":5123,"count":6,"type":"SCALAR"},{"bufferView":2,"byteOffset":72,"componentType":5123,"count":6,"type":"SCALAR"},{"bufferView":2,"byteOffset":84,"componentType":5123,"count":6,"type":"SCALAR"},{"bufferView":2,"byteOffset":96,"componentType":5123,"count":108,"type":"SCALAR"},{"bufferView":2,"byteOffset":312,"componentType":5123,"count":54,"type":"SCALAR"},{"bufferView":2,"byteOffset":420,"componentType":5123,"count":30,"type":"SCALAR"},{"bufferView":2,"byteOffset":480,"componentType":5123,"count":54,"type":"SCALAR"},{"bufferView":2,"byteOffset":588,"componentType":5123,"count":30,"type":"SCALAR"},{"bufferView":2,"byteOffset":648,"componentType":5123,"count":108,"type":"SCALAR"},{"bufferView":2,"byteOffset":864,"componentType":5123,"count":6,"type":"SCALAR"},{"bufferView":2,"byteOffset":876,"componentType":5123,"count":6,"type":"SCALAR"},{"bufferView":2,"byteOffset":888,"componentType":5123,"count":6,"type":"SCALAR"},{"bufferView":2,"byteOffset":900,"componentType":5123,"count":6,"type":"SCALAR"},{"bufferView":2,"byteOffset":912,"componentType":5123,"count":6,"type":"SCALAR"},{"bufferView":2,"byteOffset":924,"componentType":5123,"count":6,"type":"SCALAR"},{"bufferView":2,"byteOffset":936,"componentType":5123,"count":6,"type":"SCALAR"},{"bufferView":2,"byteOffset":948,"componentType":5123,"count":6,"type":"SCALAR"},{"bufferView":2,"byteOffset":960,"componentType":5123,"count":18,"type":"SCALAR"},{"bufferView":2,"byteOffset":996,"componentType":5123,"count":18,"type":"SCALAR"},{"bufferView":2,"byteOffset":1032,"componentType":5123,"count":6,"type":"SCALAR"},{"bufferView":2,"byteOffset":1044,"componentType":5123,"count":6,"type":"SCALAR"},{"bufferView":2,"byteOffset":1056,"componentType":5123,"count":6,"type":"SCALAR"},{"bufferView":2,"byteOffset":1068,"componentType":5123,"count":6,"type":"SCALAR"},{"bufferView":2,"byteOffset":1080,"componentType":5123,"count":6,"type":"SCALAR"},{"bufferView":2,"byteOffset":1092,"componentType":5123,"count":6,"type":"SCALAR"},{"bufferView":2,"byteOffset":1104,"componentType":5123,"count":6,"type":"SCALAR"},{"bufferView":2,"byteOffset":1116,"componentType":5123,"count":6,"type":"SCALAR"},{"bufferView":2,"byteOffset":1128,"componentType":5123,"count":6,"type":"SCALAR"},{"bufferView":2,"byteOffset":1140,"componentType":5123,"count":6,"type":"SCALAR"},{"bufferView":2,"byteOffset":1152,"componentType":5123,"count":6,"type":"SCALAR"},{"bufferView":2,"byteOffset":1164,"componentType":5123,"count":6,"type":"SCALAR"},{"bufferView":2,"byteOffset":1176,"componentType":5123,"count":6,"type":"SCALAR"},{"bufferView":2,"byteOffset":1188,"componentType":5123,"count":15,"type":"SCALAR"},{"bufferView":2,"byteOffset":1220,"componentType":5123,"count":15,"type":"SCALAR"},{"bufferView":2,"byteOffset":1252,"componentType":5123,"count":6,"type":"SCALAR"},{"bufferView":2,"byteOffset":1264,"componentType":5123,"count":6,"type":"SCALAR"},{"bufferView":2,"byteOffset":1276,"componentType":5123,"count":6,"type":"SCALAR"},{"bufferView":2,"byteOffset":1288,"componentType":5123,"count":6,"type":"SCALAR"},{"bufferView":2,"byteOffset":1300,"componentType":5123,"count":6,"type":"SCALAR"},{"bufferView":2,"byteOffset":1312,"componentType":5123,"count":6,"type":"SCALAR"},{"bufferView":2,"byteOffset":1324,"componentType":5123,"count":6,"type":"SCALAR"},{"bufferView":2,"byteOffset":1336,"componentType":5123,"count":6,"type":"SCALAR"},{"bufferView":2,"byteOffset":1348,"componentType":5123,"count":6,"type":"SCALAR"},{"bufferView":2,"byteOffset":1360,"componentType":5123,"count":6,"type":"SCALAR"},{"bufferView":2,"byteOffset":1372,"componentType":5123,"count":6,"type":"SCALAR"},{"bufferView":2,"byteOffset":1384,"componentType":5123,"count":6,"type":"SCALAR"},{"bufferView":2,"byteOffset":1396,"componentType":5123,"count":30,"type":"SCALAR"},{"bufferView":2,"byteOffset":1456,"componentType":5123,"count":30,"type":"SCALAR"}],"asset":{"generator":"Open CASCADE Technology 7.6 [dev.opencascade.org]","version":"2.0"},"bufferViews":[{"buffer":0,"byteLength":4248,"byteOffset":0,"byteStride":12,"target":34962},{"buffer":0,"byteLength":4248,"byteOffset":4248,"byteStride":12,"target":34962},{"buffer":0,"byteLength":1516,"byteOffset":8496,"target":34963}],"buffers":[{"byteLength":10012,"uri":"logo-3d.bin"}],"materials":[{"name":"mat_0","pbrMetallicRoughness":{"baseColorFactor":[0.0033465358428657057,0.004024717025458813,0.0043914420530200008,1.0]},"doubleSided":true}],"meshes":[{"name":"root","primitives":[{"attributes":{"NORMAL":53,"POSITION":0},"indices":106,"material":0,"mode":4},{"attributes":{"NORMAL":54,"POSITION":1},"indices":107,"material":0,"mode":4},{"attributes":{"NORMAL":55,"POSITION":2},"indices":108,"material":0,"mode":4},{"attributes":{"NORMAL":56,"POSITION":3},"indices":109,"material":0,"mode":4},{"attributes":{"NORMAL":57,"POSITION":4},"indices":110,"material":0,"mode":4},{"attributes":{"NORMAL":58,"POSITION":5},"indices":111,"material":0,"mode":4},{"attributes":{"NORMAL":59,"POSITION":6},"indices":112,"material":0,"mode":4},{"attributes":{"NORMAL":60,"POSITION":7},"indices":113,"material":0,"mode":4},{"attributes":{"NORMAL":61,"POSITION":8},"indices":114,"material":0,"mode":4},{"attributes":{"NORMAL":62,"POSITION":9},"indices":115,"material":0,"mode":4},{"attributes":{"NORMAL":63,"POSITION":10},"indices":116,"material":0,"mode":4},{"attributes":{"NORMAL":64,"POSITION":11},"indices":117,"material":0,"mode":4},{"attributes":{"NORMAL":65,"POSITION":12},"indices":118,"material":0,"mode":4},{"attributes":{"NORMAL":66,"POSITION":13},"indices":119,"material":0,"mode":4},{"attributes":{"NORMAL":67,"POSITION":14},"indices":120,"material":0,"mode":4},{"attributes":{"NORMAL":68,"POSITION":15},"indices":121,"material":0,"mode":4},{"attributes":{"NORMAL":69,"POSITION":16},"indices":122,"material":0,"mode":4},{"attributes":{"NORMAL":70,"POSITION":17},"indices":123,"material":0,"mode":4},{"attributes":{"NORMAL":71,"POSITION":18},"indices":124,"material":0,"mode":4},{"attributes":{"NORMAL":72,"POSITION":19},"indices":125,"material":0,"mode":4},{"attributes":{"NORMAL":73,"POSITION":20},"indices":126,"material":0,"mode":4},{"attributes":{"NORMAL":74,"POSITION":21},"indices":127,"material":0,"mode":4},{"attributes":{"NORMAL":75,"POSITION":22},"indices":128,"material":0,"mode":4},{"attributes":{"NORMAL":76,"POSITION":23},"indices":129,"material":0,"mode":4},{"attributes":{"NORMAL":77,"POSITION":24},"indices":130,"material":0,"mode":4},{"attributes":{"NORMAL":78,"POSITION":25},"indices":131,"material":0,"mode":4},{"attributes":{"NORMAL":79,"POSITION":26},"indices":132,"material":0,"mode":4},{"attributes":{"NORMAL":80,"POSITION":27},"indices":133,"material":0,"mode":4},{"attributes":{"NORMAL":81,"POSITION":28},"indices":134,"material":0,"mode":4},{"attributes":{"NORMAL":82,"POSITION":29},"indices":135,"material":0,"mode":4},{"attributes":{"NORMAL":83,"POSITION":30},"indices":136,"material":0,"mode":4},{"attributes":{"NORMAL":84,"POSITION":31},"indices":137,"material":0,"mode":4},{"attributes":{"NORMAL":85,"POSITION":32},"indices":138,"material":0,"mode":4},{"attributes":{"NORMAL":86,"POSITION":33},"indices":139,"material":0,"mode":4},{"attributes":{"NORMAL":87,"POSITION":34},"indices":140,"material":0,"mode":4},{"attributes":{"NORMAL":88,"POSITION":35},"indices":141,"material":0,"mode":4},{"attributes":{"NORMAL":89,"POSITION":36},"indices":142,"material":0,"mode":4},{"attributes":{"NORMAL":90,"POSITION":37},"indices":143,"material":0,"mode":4},{"attributes":{"NORMAL":91,"POSITION":38},"indices":144,"material":0,"mode":4},{"attributes":{"NORMAL":92,"POSITION":39},"indices":145,"material":0,"mode":4},{"attributes":{"NORMAL":93,"POSITION":40},"indices":146,"material":0,"mode":4},{"attributes":{"NORMAL":94,"POSITION":41},"indices":147,"material":0,"mode":4},{"attributes":{"NORMAL":95,"POSITION":42},"indices":148,"material":0,"mode":4},{"attributes":{"NORMAL":96,"POSITION":43},"indices":149,"material":0,"mode":4},{"attributes":{"NORMAL":97,"POSITION":44},"indices":150,"material":0,"mode":4},{"attributes":{"NORMAL":98,"POSITION":45},"indices":151,"material":0,"mode":4},{"attributes":{"NORMAL":99,"POSITION":46},"indices":152,"material":0,"mode":4},{"attributes":{"NORMAL":100,"POSITION":47},"indices":153,"material":0,"mode":4},{"attributes":{"NORMAL":101,"POSITION":48},"indices":154,"material":0,"mode":4},{"attributes":{"NORMAL":102,"POSITION":49},"indices":155,"material":0,"mode":4},{"attributes":{"NORMAL":103,"POSITION":50},"indices":156,"material":0,"mode":4},{"attributes":{"NORMAL":104,"POSITION":51},"indices":157,"material":0,"mode":4},{"attributes":{"NORMAL":105,"POSITION":52},"indices":158,"material":0,"mode":4}]}],"nodes":[{"mesh":0,"name":"root"}],"scene":0,"scenes":[{"nodes":[0]}]}